<svg id="Layer_1" data-name="Layer 1" xmlns="http://www.w3.org/2000/svg" viewBox="0 0 47.26 608.33"><defs><style>.cls-1{fill:#c0f4c1;}</style></defs><path class="cls-1" d="M8.3,242.44s27.81,1.38,31.91,3.17C41,246,38.1,257,37.29,270.52c-1.15,19.4-.42,43.87,1.21,49.08,4.37,14,.66,31.65-.87,37.76a2.82,2.82,0,0,1-2.84,2.13l-19.34-.71a2.8,2.8,0,0,1-2.69-2.49A347,347,0,0,1,11,306.58c1-27.62-8.23-48.34-9.1-50.23a3.24,3.24,0,0,1-.13-.33C1.23,254.42-1.95,243,8.3,242.44Z"/><path class="cls-1" d="M14.19,365c3-.66,10.48-1.77,21.62.06a2.26,2.26,0,0,1,1.9,2.17l1.92,84.24a2.25,2.25,0,0,1-1.89,2.27,86.93,86.93,0,0,1-26.11,0,2.25,2.25,0,0,1-1.91-2.27C10,439.72,11.5,377.88,12.45,367A2.21,2.21,0,0,1,14.19,365Z"/><path class="cls-1" d="M11.83,459.37c5.06.67,18.29,2.18,26,1a1.78,1.78,0,0,1,2.06,1.7c.34,8.47,1.67,39.81,2.76,45.82,1.18,6.42,4.12,80.94,4.57,92.41a1.83,1.83,0,0,1-1.38,1.83l-25.7,6.18a1.81,1.81,0,0,1-2.22-2c1.51-10.68,6.58-51.37-.36-74.43-7-23.32-7.73-61.38-7.8-70.66A1.8,1.8,0,0,1,11.83,459.37Z"/><path class="cls-1" d="M12.34,127.25a26.38,26.38,0,0,0,19.3-.74c1-.45,2,.93,2.07,2.84.24,18.07,1.13,86.45,4,93.07,2.16,5.05,3.13,9.47,1,16a2.52,2.52,0,0,1-1.41.87c-7.59.13-19.59-3.87-29.59-1.61-10.6,2.4-7.18-16.83-7-19.36,0-.14,0-.27,0-.41.5-3.28,7.13-47.31,7.9-85.4C8.67,129.07,10.44,126.58,12.34,127.25Z"/><path class="cls-1" d="M10,120.63s16.61,4.14,21,1.68-1.25-37.47-1.25-37.47-1.28-68.72,1.72-76.4-3-8.44-3-8.44S14.54.67,10,2.67C4.62,5,7.55,21.52,7.55,21.52s3.09,46.77,2.32,52.72S7.26,118.27,10,120.63Z"/></svg>