<svg width="18" height="18" viewBox="0 0 17 17" fill="none" xmlns="http://www.w3.org/2000/svg">
<g id="your_trips_24dp_00000_FILL0_wght200_GRAD0_opsz24 1" clip-path="url(#clip0_89_52)">
<path id="Vector" d="M5.58333 12.9854H11.4167V12.0527H5.58333V12.9854ZM3.5 16.25V7.85533C3.5 6.6535 3.80104 5.58862 4.40313 4.6607C5.00507 3.73278 5.77243 3.0661 6.70521 2.66067V2.25889C6.70521 1.7008 6.88007 1.22642 7.22979 0.835761C7.57951 0.445254 8.00417 0.25 8.50375 0.25C9.00333 0.25 9.42674 0.445254 9.77396 0.835761C10.1212 1.22642 10.2948 1.7008 10.2948 2.25889V2.66067C11.2276 3.0661 11.9949 3.73278 12.5969 4.6607C13.199 5.58862 13.5 6.6535 13.5 7.85533V16.25H3.5ZM4.33333 15.3173H12.6667V7.85533C12.6667 6.56504 12.2604 5.46519 11.4479 4.55576C10.6354 3.64634 9.65278 3.19163 8.5 3.19163C7.34722 3.19163 6.36458 3.64634 5.55208 4.55576C4.73958 5.46519 4.33333 6.56504 4.33333 7.85533V15.3173ZM7.53854 2.38807C7.70201 2.34501 7.86222 2.31268 8.01917 2.29107C8.17625 2.26962 8.33653 2.25889 8.5 2.25889C8.66347 2.25889 8.82375 2.26962 8.98083 2.29107C9.13778 2.31268 9.29799 2.34501 9.46146 2.38807V2.25889C9.46146 1.95388 9.36931 1.69831 9.185 1.49218C9.00083 1.28589 8.7725 1.18274 8.5 1.18274C8.2275 1.18274 7.99917 1.28589 7.815 1.49218C7.63069 1.69831 7.53854 1.95388 7.53854 2.25889V2.38807ZM7.19479 9.75673L8.49792 8.65306L9.80125 9.75673L9.31417 7.95747L10.6154 6.9191H9.01125L8.5 5.0212L7.98875 6.9191H6.38458L7.68792 7.96353L7.19479 9.75673Z" fill="#23771E"/>
</g>
<defs>
<clipPath id="clip0_89_52">
<rect width="16" height="16" fill="white" transform="translate(0.5 0.25)"/>
</clipPath>
</defs>
</svg>
