<svg width="24" height="24" viewBox="0 0 24 24" fill="none" xmlns="http://www.w3.org/2000/svg">
<g id="account_circle_24dp_00000_FILL0_wght200_GRAD0_opsz24 1" clip-path="url(#clip0_318_74)">
<path id="Vector" d="M4.26167 19.3127C5.395 18.4973 6.59756 17.8526 7.86933 17.3783C9.14111 16.9039 10.518 16.6667 12 16.6667C13.482 16.6667 14.8589 16.9039 16.1307 17.3783C17.4024 17.8526 18.605 18.4973 19.7383 19.3127C20.6188 18.4016 21.3269 17.3256 21.8627 16.0847C22.3987 14.8436 22.6667 13.482 22.6667 12C22.6667 9.04445 21.6278 6.52778 19.55 4.45C17.4722 2.37222 14.9556 1.33333 12 1.33333C9.04445 1.33333 6.52778 2.37222 4.45 4.45C2.37222 6.52778 1.33333 9.04445 1.33333 12C1.33333 13.482 1.60133 14.8436 2.13733 16.0847C2.67311 17.3256 3.38122 18.4016 4.26167 19.3127ZM12.0007 12.6667C10.8771 12.6667 9.92945 12.281 9.15767 11.5097C8.38589 10.7383 8 9.79089 8 8.66733C8 7.54378 8.38567 6.59611 9.157 5.82433C9.92833 5.05256 10.8758 4.66667 11.9993 4.66667C13.1229 4.66667 14.0706 5.05233 14.8423 5.82367C15.6141 6.595 16 7.54244 16 8.666C16 9.78956 15.6143 10.7372 14.843 11.509C14.0717 12.2808 13.1242 12.6667 12.0007 12.6667ZM12 24C10.3264 24 8.75978 23.6884 7.3 23.0653C5.84022 22.4422 4.57011 21.5906 3.48967 20.5103C2.40944 19.4299 1.55778 18.1598 0.934667 16.7C0.311555 15.2402 0 13.6736 0 12C0 10.3264 0.311555 8.75978 0.934667 7.3C1.55778 5.84022 2.40944 4.57011 3.48967 3.48967C4.57011 2.40944 5.84022 1.55778 7.3 0.934666C8.75978 0.311555 10.3264 0 12 0C13.6736 0 15.2402 0.311555 16.7 0.934666C18.1598 1.55778 19.4299 2.40944 20.5103 3.48967C21.5906 4.57011 22.4422 5.84022 23.0653 7.3C23.6884 8.75978 24 10.3264 24 12C24 13.6736 23.6884 15.2402 23.0653 16.7C22.4422 18.1598 21.5906 19.4299 20.5103 20.5103C19.4299 21.5906 18.1598 22.4422 16.7 23.0653C15.2402 23.6884 13.6736 24 12 24ZM12 22.6667C13.2291 22.6667 14.4386 22.4517 15.6283 22.0217C16.8179 21.5919 17.846 21.0034 18.7127 20.2563C17.846 19.5606 16.8434 19.0106 15.705 18.6063C14.5666 18.2021 13.3316 18 12 18C10.6684 18 9.42911 18.1979 8.282 18.5937C7.13511 18.9894 6.13689 19.5437 5.28733 20.2563C6.154 21.0034 7.18211 21.5919 8.37167 22.0217C9.56144 22.4517 10.7709 22.6667 12 22.6667ZM12 11.3333C12.7487 11.3333 13.3803 11.0761 13.895 10.5617C14.4094 10.047 14.6667 9.41533 14.6667 8.66667C14.6667 7.918 14.4094 7.28633 13.895 6.77167C13.3803 6.25722 12.7487 6 12 6C11.2513 6 10.6197 6.25722 10.105 6.77167C9.59056 7.28633 9.33333 7.918 9.33333 8.66667C9.33333 9.41533 9.59056 10.047 10.105 10.5617C10.6197 11.0761 11.2513 11.3333 12 11.3333Z" fill="#23771e"/>
</g>
<defs>
<clipPath id="clip0_318_74">
<rect width="24" height="24" fill="white"/>
</clipPath>
</defs>
</svg>
