<svg width="164" height="31" viewBox="0 0 164 31" fill="none" xmlns="http://www.w3.org/2000/svg">
<path d="M8.10714 30.5C7.43753 30.5216 6.77043 30.4092 6.14627 30.1696C5.52211 29.93 4.95389 29.5683 4.47606 29.1062C3.96615 28.5694 3.57351 27.9354 3.32242 27.2435C3.07133 26.5515 2.96711 25.8162 3.0162 25.0831V14.1944H0.492383C0.350109 14.1944 0.275879 13.8901 0.275879 13.2815C0.275879 13.1111 0.275879 13.0137 0.31918 12.9832C1.38497 12.4302 2.31906 11.6605 3.0595 10.7252C3.62126 10.1018 4.12438 9.42952 4.56266 8.71666C4.77759 8.3993 4.94431 8.05278 5.05753 7.68805C5.92973 7.68805 6.36274 7.76109 6.36274 7.90107V12.1616L9.80206 12.2042H12.2393C12.4682 12.2042 12.5857 12.332 12.5857 12.5876C12.5766 13.1557 12.4281 13.7133 12.1527 14.2127H6.36274V24.6814C6.31181 25.6714 6.63085 26.6457 7.25968 27.4202C7.54335 27.7529 7.90011 28.0177 8.30302 28.1949C8.70594 28.372 9.14448 28.4568 9.58556 28.4428C10.5437 28.4256 11.4778 28.1452 12.2826 27.6333C12.3692 27.5724 12.4991 27.6941 12.6723 27.9985C12.8455 28.2967 12.9197 28.461 12.8888 28.4854C12.306 29.0447 11.6303 29.5017 10.8908 29.8366C10.0284 30.2689 9.07499 30.4961 8.10714 30.5Z" fill="black"/>
<path d="M19.5016 30.5C18.3075 30.5466 17.1351 30.1757 16.1922 29.4532C15.7446 29.0621 15.3946 28.5748 15.1693 28.0291C14.944 27.4833 14.8495 26.8939 14.8932 26.3065C14.8932 24.5982 16.0231 23.1781 18.283 22.046C19.2257 21.5757 20.209 21.1887 21.2213 20.8896C22.1945 20.6055 23.1719 20.2769 24.1534 19.9036C24.2811 19.8546 24.3887 19.7652 24.4593 19.6496C24.5298 19.5339 24.5593 19.3984 24.5431 19.2645V16.0326C24.5714 15.6344 24.5082 15.2351 24.3583 14.8642C24.2084 14.4934 23.9755 14.1605 23.6771 13.8902C23.0986 13.3941 22.3534 13.1273 21.5863 13.1415C21.1824 13.1315 20.7808 13.2043 20.407 13.3551C20.0332 13.506 19.6954 13.7318 19.415 14.018C19.1199 14.3253 18.8905 14.6879 18.7407 15.0842C18.5909 15.4804 18.5236 15.9023 18.5428 16.3247C18.5428 17.3229 17.949 17.822 16.7613 17.822C16.4289 17.8618 16.0919 17.806 15.7911 17.6612C15.4903 17.5165 15.2385 17.289 15.0664 17.0064C15.1015 16.3194 15.3694 15.6638 15.8272 15.144C16.3894 14.4541 17.0572 13.8545 17.8067 13.3667C18.6391 12.8252 19.5368 12.3877 20.479 12.0642C21.4068 11.731 22.3862 11.558 23.374 11.553C24.9637 11.553 26.1143 11.9303 26.8071 12.6851C27.4999 13.4398 27.8525 14.6631 27.8525 16.3369V26.2213C27.8317 26.7594 27.9999 27.2881 28.3288 27.7185C28.4807 27.9157 28.6786 28.0739 28.9058 28.1799C29.133 28.2858 29.3828 28.3363 29.634 28.3272C30.1877 28.263 30.7135 28.0527 31.1557 27.7185C31.2733 27.7185 31.3289 27.8342 31.3289 28.0594C31.3449 28.3737 31.2699 28.6861 31.1124 28.9602C29.9371 29.9583 28.9227 30.4574 28.069 30.4574C27.3494 30.4355 26.6656 30.1437 26.1576 29.6418C25.6126 29.1768 25.1885 28.5905 24.9204 27.9316C24.772 28.0472 24.5926 28.1933 24.3761 28.382L23.8317 28.8323C23.2157 29.2912 22.5522 29.685 21.8522 30.007C21.1164 30.3432 20.3129 30.5117 19.5016 30.5ZM21.1532 28.0655C21.9733 28.0634 22.775 27.8265 23.4606 27.3838C24.1843 26.9273 24.5431 26.4404 24.5431 25.9291V21.5104C23.7884 21.7964 23.0709 22.0521 22.3904 22.2833L20.7635 22.8372C20.1854 23.0758 19.6711 23.4424 19.2604 23.9084C18.8002 24.3797 18.5431 25.0078 18.5428 25.6613C18.5124 26.0074 18.57 26.3555 18.7103 26.6743C18.8507 26.993 19.0695 27.2724 19.347 27.4872C19.8733 27.8595 20.5051 28.0596 21.1532 28.0594V28.0655Z" fill="black"/>
<path d="M32.3744 30.3235C32.2296 30.1083 32.1681 29.8491 32.2012 29.5931C32.2012 29.2523 32.2568 29.0819 32.3744 29.0819C32.6975 29.0705 33.0186 29.0277 33.3332 28.954C33.7197 28.8725 34.0985 28.7585 34.4652 28.6132C34.8116 28.4671 34.9972 28.3393 35.0281 28.2237C35.1549 27.7763 35.2357 27.3175 35.2693 26.8542C35.3126 26.343 35.3312 25.8013 35.3312 25.2292V6.70816C35.3365 5.789 35.2495 4.87158 35.0714 3.96926C34.9539 3.51278 34.2178 3.2815 32.8507 3.2815H32.4424C32.2692 3.2815 32.1826 3.12325 32.1826 2.81284C32.1826 2.35636 32.2692 2.12508 32.4424 2.12508C33.7019 2.02238 34.9463 1.78566 36.1539 1.41905C36.885 1.21007 37.5986 0.945526 38.288 0.627815L38.5045 0.5H38.6283C38.7396 0.5 38.8571 0.579124 38.9747 0.737371C39.0767 0.87174 39.1503 1.0249 39.1912 1.18777C38.8346 2.39501 38.6739 3.65004 38.7149 4.90657V19.8853C39.1021 19.8464 39.4738 19.7148 39.7974 19.5018L41.8016 17.8341L43.3666 16.5499C43.8615 16.1441 44.2883 15.7729 44.6471 15.4361C44.937 15.2024 45.1215 14.8656 45.1605 14.4988C45.1605 14.1275 44.845 13.9327 44.2079 13.8901C43.8649 13.911 43.5217 13.8527 43.2058 13.7197C42.9707 13.1476 42.9893 12.8189 43.2491 12.7337H46.6698C47.6843 12.7337 48.5256 12.7033 49.1442 12.6485C49.7628 12.5937 50.5484 12.5511 51.4515 12.5207C51.6247 12.5207 51.6989 12.752 51.668 13.1293C51.6371 13.5067 51.5505 13.7075 51.4082 13.7075C51.079 13.7191 50.7517 13.7619 50.4308 13.8354C50.0102 13.9206 49.6081 14.0119 49.2308 14.1093C48.9425 14.1781 48.6655 14.2867 48.4081 14.4318C47.8397 14.7679 47.2942 15.1399 46.775 15.5456C46.008 16.1178 45.1852 16.7629 44.3007 17.4933C43.4161 18.2237 42.6429 18.9236 41.95 19.6114C44.1811 21.9486 45.9275 23.8313 47.1894 25.2596C48.4514 26.6879 49.2761 27.5724 49.6638 27.9133C50.2109 28.3429 50.8429 28.6559 51.5195 28.8323C52.0406 29.0029 52.5805 29.1112 53.1278 29.1549C53.2454 29.1549 53.3011 29.3862 53.3011 29.8366C53.3186 29.9961 53.3038 30.1574 53.2578 30.3113L48.5194 30.0983L44.0285 30.3235C43.8893 30.1219 43.8279 29.878 43.8553 29.6357C43.8553 29.3253 43.9171 29.1671 44.0285 29.1671C44.3693 29.1599 44.7071 29.1024 45.0306 28.9967C45.4079 28.881 45.5997 28.7532 45.5997 28.6132C45.5975 28.5712 45.5824 28.5309 45.5564 28.4976L39.2035 21.7295L38.6839 21.8573V24.4197C38.675 25.2142 38.7101 26.0087 38.7891 26.7994C38.8354 27.2812 38.916 27.7591 39.0303 28.2298C39.086 28.3454 39.2901 28.4732 39.6489 28.6193C40.0153 28.7654 40.3941 28.8795 40.7809 28.9601C41.0671 29.0286 41.3591 29.0714 41.6531 29.0879C41.7397 29.0879 41.7954 29.2584 41.8263 29.5992C41.86 29.8431 41.8453 30.0912 41.783 30.3296L37.1251 30.1166L32.3744 30.3235Z" fill="black"/>
<path d="M63.5572 30.4574C62.0048 30.475 60.48 30.0524 59.1652 29.2401C57.8002 28.3897 56.6796 27.2091 55.9107 25.811C55.1418 24.413 54.7502 22.8442 54.7733 21.2547C54.7268 19.4642 55.1148 17.6886 55.9053 16.0752C56.5791 14.6962 57.6405 13.5362 58.9638 12.7326C60.2871 11.9289 61.8167 11.5153 63.3716 11.5408C64.5902 11.5154 65.7979 11.7718 66.8975 12.2894C67.831 12.7204 68.6393 13.3756 69.2481 14.1945C69.7454 14.9491 70.1327 15.7686 70.3987 16.629C70.643 17.4183 70.768 18.2386 70.7698 19.0636C70.7698 19.6296 70.6832 19.9827 70.5038 20.1105C70.1973 20.2666 69.8514 20.3322 69.5079 20.2991H58.559C58.3239 20.2991 58.2126 20.3722 58.2126 20.5183C58.209 21.7047 58.4598 22.8786 58.9487 23.9632C59.4255 25.0353 60.1755 25.9683 61.1261 26.6716C62.1449 27.4054 63.384 27.7825 64.6459 27.7428C65.7035 27.7779 66.7569 27.5955 67.7388 27.2072C68.3755 26.9541 68.9813 26.6315 69.545 26.2456L69.8481 26.0326C70.0213 26.0326 70.1079 26.2152 70.1079 26.5864C70.0844 26.8606 69.9954 27.1255 69.8481 27.3594C69.1576 28.2504 68.2826 28.9868 67.281 29.5201C66.1471 30.1543 64.8613 30.4779 63.5572 30.4574ZM58.559 18.4732H67.0398C67.182 18.4732 67.2563 18.3332 67.2563 18.0472C67.2353 17.3289 67.0648 16.6225 66.7552 15.9717C66.4149 15.2058 65.9032 14.5255 65.2583 13.9814C64.5591 13.4015 63.667 13.0959 62.753 13.1233C61.8637 13.1106 61.0046 13.4404 60.3591 14.0423C59.7097 14.6311 59.1915 15.3462 58.8374 16.1421C58.5239 16.7697 58.3409 17.4526 58.2992 18.1506C58.2992 18.3758 58.3858 18.4732 58.559 18.4732Z" fill="black"/>
<path d="M73.6092 30.3235C73.4932 30.1135 73.4477 29.8727 73.4793 29.6357C73.4793 29.2644 73.5226 29.0819 73.6092 29.0819C73.9603 29.0702 74.309 29.0191 74.6484 28.9297C75.0681 28.8361 75.4814 28.7161 75.8856 28.5706C76.1728 28.4976 76.426 28.3301 76.6031 28.0958C76.8072 27.7854 76.9062 26.4403 76.9062 24.0727V7.90109C76.9062 7.07942 76.9062 6.34905 76.8444 5.72214C76.8151 5.21636 76.7343 4.71476 76.6031 4.22488C76.5413 4.05446 76.3186 3.89622 75.9289 3.75014C75.5262 3.60469 75.1125 3.49072 74.6917 3.4093C74.3416 3.33555 73.9855 3.29278 73.6277 3.28149C73.5102 3.28149 73.4545 3.11107 73.4545 2.77023C73.4215 2.51422 73.4829 2.25504 73.6277 2.03986C74.3824 2.07029 75.1866 2.08855 76.0402 2.10681C76.8938 2.12507 77.8155 2.10681 78.7991 2.10681L82.4549 2.0642H84.9292C85.3066 2.0642 85.6901 2.0642 86.0798 2.10681C86.4695 2.14941 86.8592 2.17984 87.2304 2.23462C88.3822 2.43065 89.4925 2.81537 90.5151 3.37278C91.5287 3.90929 92.3948 4.68001 93.0389 5.61867C93.7188 6.64673 94.0601 7.85604 94.0162 9.08185C94.0025 10.1173 93.6537 11.1215 93.0203 11.9486C92.5182 12.6619 91.8896 13.2804 91.1646 13.7745C90.7042 14.0641 90.2151 14.3068 89.7047 14.4988C89.4758 14.584 89.4016 14.6692 89.4882 14.7544C90.185 14.8898 90.85 15.152 91.4491 15.5274C92.2125 15.9876 92.9131 16.5419 93.5337 17.1768C94.2061 17.8525 94.7712 18.624 95.2101 19.4653C95.6516 20.2978 95.8828 21.2226 95.8844 22.1616C95.9234 23.6928 95.4399 25.1928 94.5111 26.4221C93.5153 27.6822 92.1832 28.6451 90.6635 29.2036C88.8037 29.8979 86.8252 30.2327 84.8365 30.1896H78.8733L73.6092 30.3235ZM83.5684 14.231C84.3826 14.2371 85.1966 14.1944 86.0056 14.1032C87.1045 14.0225 88.1479 13.5957 88.981 12.8859C89.3783 12.5337 89.6919 12.0997 89.8993 11.6148C90.1067 11.1298 90.2029 10.6058 90.181 10.08C90.181 8.11208 89.68 6.5783 88.6779 5.47869C87.6758 4.38313 86.2035 3.82927 84.2179 3.82927C83.1777 3.7948 82.1376 3.89715 81.125 4.13359C80.9518 4.15793 80.8651 4.28575 80.8651 4.51703L80.6919 8.8384V13.9327C80.6919 14.1397 81.6507 14.2371 83.5684 14.2371V14.231ZM83.7416 28.2663C84.4626 28.2675 85.1826 28.2105 85.8942 28.0958C86.7606 27.9432 87.6114 27.7151 88.4366 27.4142C89.3991 27.1188 90.2388 26.5253 90.8305 25.7221C91.4633 24.8324 91.7846 23.7642 91.746 22.6789C91.7605 21.5161 91.4753 20.3686 90.9171 19.3436C90.3391 18.3104 89.4602 17.471 88.3933 16.9333C87.0267 16.2827 85.5183 15.9733 84.0014 16.0326C83.6797 16.0326 83.2653 16.0326 82.7642 16.0752L80.9085 16.203C80.7722 16.6632 80.7137 17.1423 80.7353 17.6211V23.8658C80.7353 26.0326 80.9662 27.3026 81.4281 27.6759C82.1064 28.131 82.9236 28.3417 83.7416 28.2724V28.2663Z" fill="black"/>
<path d="M108.75 30.5C107.066 30.5159 105.411 30.0713 103.969 29.2158C102.53 28.3743 101.338 27.1786 100.511 25.7465C99.6607 24.2903 99.2247 22.6357 99.249 20.9565C99.2263 19.2786 99.653 17.6245 100.486 16.1604C101.294 14.7598 102.455 13.588 103.857 12.7581C105.319 11.9074 106.991 11.4714 108.689 11.4982C110.367 11.4806 112.017 11.9254 113.452 12.7824C114.869 13.6224 116.049 14.7984 116.885 16.203C117.744 17.6435 118.188 19.2865 118.171 20.9565C118.18 22.6079 117.759 24.2339 116.948 25.6797C116.137 27.1254 114.963 28.3428 113.538 29.2158C112.099 30.0839 110.438 30.5295 108.75 30.5ZM109.14 28.8323C110.146 28.847 111.122 28.4959 111.88 27.8463C112.712 27.1259 113.35 26.2142 113.736 25.1926C114.197 24.0291 114.426 22.7893 114.41 21.5408C114.43 20.0916 114.132 18.6552 113.538 17.329C113.033 16.1511 112.251 15.1081 111.256 14.2858C110.398 13.5523 109.299 13.1482 108.163 13.1476C107.168 13.14 106.203 13.4809 105.441 14.1093C104.612 14.7974 103.973 15.6811 103.585 16.6777C103.144 17.8388 102.932 19.072 102.961 20.3113C102.942 21.7738 103.23 23.2242 103.808 24.5718C104.299 25.7701 105.075 26.8347 106.072 27.6759C106.922 28.4128 108.014 28.8234 109.146 28.8323H109.14Z" fill="black"/>
<path d="M130.933 30.5C129.247 30.5151 127.59 30.0706 126.145 29.2158C124.709 28.3707 123.518 27.1759 122.687 25.7465C121.833 24.2911 121.391 22.6371 121.407 20.9565C121.384 19.2786 121.811 17.6245 122.644 16.1604C123.451 14.7598 124.613 13.588 126.015 12.7581C127.476 11.9074 129.149 11.4714 130.846 11.4982C132.525 11.4806 134.174 11.9254 135.609 12.7824C137.026 13.6224 138.207 14.7984 139.042 16.203C139.901 17.6435 140.346 19.2865 140.329 20.9565C140.338 22.6079 139.916 24.2339 139.105 25.6797C138.294 27.1254 137.121 28.3428 135.696 29.2158C134.264 30.0795 132.612 30.5249 130.933 30.5ZM131.323 28.8323C132.328 28.847 133.304 28.4959 134.063 27.8463C134.894 27.1259 135.532 26.2142 135.919 25.1926C136.379 24.0291 136.608 22.7893 136.593 21.5408C136.618 20.0974 136.329 18.6655 135.745 17.3411C135.238 16.1644 134.456 15.1219 133.463 14.2979C132.604 13.565 131.506 13.1609 130.37 13.1598C129.377 13.1536 128.415 13.4944 127.654 14.1214C126.825 14.8096 126.187 15.6932 125.799 16.6899C125.362 17.8456 125.152 19.0725 125.18 20.3052C125.161 21.7677 125.45 23.2181 126.027 24.5657C126.518 25.7625 127.292 26.8267 128.285 27.6698C129.126 28.3985 130.202 28.8103 131.323 28.8323Z" fill="black"/>
<path d="M142.76 30.3235C142.618 30.1071 142.557 29.849 142.587 29.5931C142.587 29.2523 142.649 29.0819 142.76 29.0819C143.083 29.0705 143.404 29.0277 143.719 28.954C144.106 28.8742 144.485 28.7602 144.851 28.6132C145.197 28.4671 145.389 28.3393 145.414 28.2237C145.541 27.7763 145.622 27.3175 145.655 26.8542C145.698 26.343 145.723 25.8013 145.723 25.2292V6.70816C145.727 5.7888 145.637 4.87137 145.457 3.96926C145.346 3.51278 144.604 3.2815 143.243 3.2815H142.847C142.674 3.2815 142.587 3.12325 142.587 2.81284C142.587 2.35636 142.674 2.12508 142.847 2.12508C144.117 2.02515 145.372 1.78839 146.589 1.41905C147.305 1.20749 148.004 0.942993 148.68 0.627815L148.897 0.5H148.983C149.094 0.5 149.212 0.579124 149.33 0.737371C149.436 0.868794 149.511 1.02305 149.546 1.18777C149.192 2.39562 149.032 3.65018 149.07 4.90657V19.8853C149.459 19.8462 149.832 19.7146 150.158 19.5018L152.156 17.8341L153.721 16.5499C154.216 16.1482 154.643 15.7769 155.008 15.4361C155.303 15.2039 155.494 14.8675 155.54 14.4988C155.54 14.1275 155.218 13.9327 154.581 13.8901C154.238 13.911 153.895 13.8527 153.579 13.7197C153.35 13.1476 153.363 12.8189 153.622 12.7337H157.062C158.076 12.7337 158.918 12.7033 159.536 12.6485C160.155 12.5937 160.947 12.5511 161.843 12.5207C162.017 12.5207 162.091 12.752 162.06 13.1293C162.029 13.5067 161.949 13.7075 161.8 13.7075C161.471 13.7194 161.144 13.7622 160.823 13.8354C160.402 13.9206 160 14.0119 159.629 14.1093C159.339 14.1783 159.06 14.2869 158.8 14.4318C158.232 14.7679 157.686 15.1399 157.167 15.5456C156.4 16.1178 155.583 16.7629 154.693 17.4933C153.802 18.2237 153.041 18.9236 152.342 19.6114C154.577 21.9486 156.326 23.8313 157.588 25.2596C158.825 26.6899 159.666 27.5724 160.062 27.9133C160.61 28.3417 161.242 28.6546 161.918 28.8323C162.439 29.0024 162.979 29.1107 163.526 29.1549C163.644 29.1549 163.699 29.3862 163.699 29.8366C163.717 29.9961 163.702 30.1574 163.656 30.3113L158.918 30.0983L154.396 30.3113C154.253 30.1111 154.192 29.866 154.223 29.6236C154.223 29.3131 154.278 29.1549 154.396 29.1549C154.735 29.1481 155.07 29.0907 155.392 28.9845C155.769 28.8688 155.961 28.741 155.961 28.601C155.963 28.5528 155.947 28.5054 155.917 28.4671L149.565 21.7112L149.045 21.839V24.4197C149.039 25.2142 149.074 26.0084 149.15 26.7994C149.196 27.2812 149.277 27.7591 149.391 28.2298C149.554 28.4165 149.769 28.552 150.01 28.6193C150.374 28.7654 150.751 28.8795 151.136 28.9601C151.422 29.0286 151.714 29.0714 152.008 29.0879C152.095 29.0879 152.15 29.2584 152.181 29.5992C152.221 29.8428 152.206 30.0922 152.138 30.3296L147.499 30.1166L142.76 30.3235Z" fill="black"/>
</svg>
