<svg width="24" height="25" viewBox="0 0 24 25" fill="none" xmlns="http://www.w3.org/2000/svg">
<path d="M12.0043 15.6537C13.0204 15.6537 13.8827 15.2981 14.591 14.5868C15.2994 13.8754 15.6535 13.0117 15.6535 11.9955C15.6535 10.9793 15.2979 10.1171 14.5865 9.40875C13.8752 8.70042 13.0114 8.34625 11.9953 8.34625C10.9791 8.34625 10.1169 8.70192 9.40852 9.41325C8.70019 10.1246 8.34602 10.9883 8.34602 12.0045C8.34602 13.0207 8.70169 13.8829 9.41302 14.5912C10.1244 15.2996 10.9881 15.6537 12.0043 15.6537ZM11.9998 14.7C11.2498 14.7 10.6123 14.4375 10.0873 13.9125C9.56227 13.3875 9.29977 12.75 9.29977 12C9.29977 11.25 9.56227 10.6125 10.0873 10.0875C10.6123 9.5625 11.2498 9.3 11.9998 9.3C12.7498 9.3 13.3873 9.5625 13.9123 10.0875C14.4373 10.6125 14.6998 11.25 14.6998 12C14.6998 12.75 14.4373 13.3875 13.9123 13.9125C13.3873 14.4375 12.7498 14.7 11.9998 14.7ZM11.9998 18.5C10.0228 18.5 8.2096 17.9769 6.56027 16.9308C4.91094 15.8846 3.5786 14.5128 2.56327 12.8155C2.47994 12.6782 2.4206 12.5428 2.38527 12.4095C2.3501 12.2762 2.33252 12.1393 2.33252 11.999C2.33252 11.8587 2.3501 11.7222 2.38527 11.5895C2.4206 11.4568 2.47994 11.3218 2.56327 11.1845C3.5786 9.48717 4.91094 8.11542 6.56027 7.06925C8.2096 6.02308 10.0228 5.5 11.9998 5.5C13.9768 5.5 15.7899 6.02308 17.4393 7.06925C19.0886 8.11542 20.4209 9.48717 21.4363 11.1845C21.5196 11.3218 21.5789 11.4572 21.6143 11.5905C21.6494 11.7238 21.667 11.8607 21.667 12.001C21.667 12.1413 21.6494 12.2778 21.6143 12.4105C21.5789 12.5432 21.5196 12.6782 21.4363 12.8155C20.4209 14.5128 19.0886 15.8846 17.4393 16.9308C15.7899 17.9769 13.9768 18.5 11.9998 18.5ZM11.9998 17.5C13.8831 17.5 15.6123 17.0042 17.1873 16.0125C18.7623 15.0208 19.9664 13.6833 20.7998 12C19.9664 10.3167 18.7623 8.97917 17.1873 7.9875C15.6123 6.99583 13.8831 6.5 11.9998 6.5C10.1164 6.5 8.38727 6.99583 6.81227 7.9875C5.23727 8.97917 4.0331 10.3167 3.19977 12C4.0331 13.6833 5.23727 15.0208 6.81227 16.0125C8.38727 17.0042 10.1164 17.5 11.9998 17.5Z" fill="#999999"/>
</svg>
