<svg width="16" height="14" viewBox="0 0 16 14" fill="none" xmlns="http://www.w3.org/2000/svg">
<path d="M0 14L8 0L16 14H0ZM1.48383 13.125H14.5162L8 1.75L1.48383 13.125ZM8 11.9136C8.15046 11.9136 8.27661 11.8619 8.37846 11.7587C8.4803 11.6554 8.53122 11.5275 8.53122 11.375C8.53122 11.2225 8.4803 11.0946 8.37846 10.9913C8.27661 10.8881 8.15046 10.8364 8 10.8364C7.84954 10.8364 7.72339 10.8881 7.62154 10.9913C7.5197 11.0946 7.46878 11.2225 7.46878 11.375C7.46878 11.5275 7.5197 11.6554 7.62154 11.7587C7.72339 11.8619 7.84954 11.9136 8 11.9136ZM7.56846 9.96144H8.43153V5.58644H7.56846V9.96144Z" fill="black"/>
</svg>
