<svg width="24" height="24" viewBox="0 0 24 24" fill="none" xmlns="http://www.w3.org/2000/svg">
<g id="group">
<path id="Vector" d="M0 21V18.7604C0 18.1289 0.153343 17.586 0.460029 17.1316C0.766715 16.6774 1.17889 16.3144 1.69656 16.0426C2.80356 15.4807 3.90259 15.0328 4.99365 14.6988C6.08491 14.3648 7.3979 14.1978 8.93261 14.1978C10.4671 14.1978 11.78 14.3648 12.8712 14.6988C13.9625 15.0328 15.0615 15.4807 16.1683 16.0426C16.686 16.3144 17.0982 16.6774 17.4049 17.1316C17.7118 17.586 17.8652 18.1289 17.8652 18.7604V21H0ZM20.4174 21V18.6975C20.4174 17.9091 20.2677 17.1649 19.9682 16.465C19.669 15.765 19.2444 15.1645 18.6947 14.6634C19.3212 14.7994 19.9249 14.9882 20.5058 15.2297C21.0864 15.4714 21.6606 15.743 22.2285 16.0446C22.7814 16.3412 23.215 16.7206 23.5291 17.1829C23.843 17.6455 24 18.1503 24 18.6975V21H20.4174ZM8.93261 11.1626C7.87983 11.1626 6.9786 10.763 6.2289 9.96376C5.4792 9.1645 5.10435 8.20369 5.10435 7.08132C5.10435 5.95896 5.4792 4.99815 6.2289 4.19889C6.9786 3.39963 7.87983 3 8.93261 3C9.98538 3 10.8866 3.39963 11.6363 4.19889C12.386 4.99815 12.7609 5.95896 12.7609 7.08132C12.7609 8.20369 12.386 9.1645 11.6363 9.96376C10.8866 10.763 9.98538 11.1626 8.93261 11.1626ZM18.2088 7.08132C18.2088 8.20369 17.8339 9.1645 17.0842 9.96376C16.3345 10.763 15.4333 11.1626 14.3805 11.1626C14.3265 11.1626 14.2577 11.1562 14.1741 11.1433C14.0908 11.1301 14.0221 11.1157 13.968 11.1001C14.4004 10.5355 14.7326 9.90923 14.9647 9.2213C15.1969 8.53337 15.313 7.81902 15.313 7.07826C15.313 6.3375 15.1915 5.62962 14.9484 4.95461C14.7055 4.27961 14.3787 3.64904 13.968 3.06292C14.0367 3.03684 14.1054 3.01984 14.1741 3.0119C14.2428 3.00397 14.3116 3 14.3805 3C15.4333 3 16.3345 3.39963 17.0842 4.19889C17.8339 4.99815 18.2088 5.95896 18.2088 7.08132ZM1.27609 19.6396H16.5891V18.7604C16.5891 18.4411 16.5143 18.162 16.3645 17.923C16.2148 17.6843 15.9461 17.4558 15.5584 17.2377C14.6062 16.6953 13.6024 16.2798 12.5471 15.9912C11.492 15.7026 10.2872 15.5582 8.93261 15.5582C7.57783 15.5582 6.37288 15.7026 5.31777 15.9912C4.26245 16.2798 3.2587 16.6953 2.30653 17.2377C1.91881 17.4558 1.65009 17.6843 1.50036 17.923C1.35084 18.162 1.27609 18.4411 1.27609 18.7604V19.6396ZM8.93261 9.80221C9.63445 9.80221 10.2353 9.53579 10.7351 9.00295C11.2349 8.47011 11.4848 7.82957 11.4848 7.08132C11.4848 6.33308 11.2349 5.69254 10.7351 5.1597C10.2353 4.62686 9.63445 4.36044 8.93261 4.36044C8.23076 4.36044 7.62993 4.62686 7.13013 5.1597C6.63033 5.69254 6.38043 6.33308 6.38043 7.08132C6.38043 7.82957 6.63033 8.47011 7.13013 9.00295C7.62993 9.53579 8.23076 9.80221 8.93261 9.80221Z" fill="#23771e"/>
</g>
</svg>
