<svg width="14" height="18" viewBox="0 0 14 18" fill="none" xmlns="http://www.w3.org/2000/svg">
<path d="M2.72125 17.4167C2.18167 17.4167 1.71826 17.2356 1.33104 16.8734C0.943681 16.5113 0.75 16.0631 0.75 15.5288V4.15235C0.75 3.67263 0.905208 3.24714 1.21563 2.87589C1.5259 2.50464 1.9209 2.26881 2.40063 2.16839L8.37021 0.955264C8.83604 0.854847 9.25299 0.953945 9.62104 1.25256C9.9891 1.55117 10.1731 1.94026 10.1731 2.41985V12.109C10.1731 12.469 10.0601 12.7879 9.83417 13.0657C9.60819 13.3435 9.32215 13.5171 8.97604 13.5865L2.53375 14.9311C2.38736 14.9643 2.26181 15.0356 2.15708 15.1451C2.05236 15.2546 2 15.3826 2 15.5288C2 15.7137 2.07188 15.8662 2.21563 15.9865C2.35924 16.1067 2.52778 16.1667 2.72125 16.1667H11.7435C11.8184 16.1667 11.8799 16.1427 11.9279 16.0946C11.976 16.0466 12 15.9851 12 15.9103V3.87506C12 3.6977 12.0599 3.54922 12.1796 3.42964C12.2992 3.30992 12.4476 3.25006 12.625 3.25006C12.8024 3.25006 12.9508 3.30992 13.0704 3.42964C13.1901 3.54922 13.25 3.6977 13.25 3.87506V15.9103C13.25 16.3258 13.1028 16.6808 12.8085 16.9753C12.5141 17.2696 12.1591 17.4167 11.7435 17.4167H2.72125ZM4.24354 13.3159L8.72271 12.3911C8.78146 12.3804 8.82958 12.351 8.86708 12.303C8.90444 12.2549 8.92313 12.2015 8.92313 12.1428V2.44068C8.92313 2.36068 8.89104 2.29394 8.82688 2.24047C8.76285 2.187 8.69076 2.16832 8.61063 2.18443L4.24354 3.07693V13.3159ZM2.99354 13.569V3.33026L2.65708 3.40068C2.46694 3.43915 2.30986 3.52651 2.18583 3.66276C2.06194 3.79901 2 3.96221 2 4.15235V13.8576C2.08542 13.8137 2.17306 13.776 2.26292 13.7444C2.35264 13.7129 2.44292 13.6876 2.53375 13.6684L2.99354 13.569Z" fill="#23771E"/>
</svg>
