<svg width="24" height="24" viewBox="0 0 24 24" fill="none" xmlns="http://www.w3.org/2000/svg">
<g id="leaderboard">
<path id="Vector" d="M12 21.6635C13.6667 21.6635 15.0833 21.0788 16.25 19.9095C17.4167 18.7401 18 17.3201 18 15.6495C18 13.979 17.4167 12.559 16.25 11.3896C15.0833 10.2202 13.6667 9.63548 12 9.63548C10.3333 9.63548 8.91667 10.2202 7.75 11.3896C6.58333 12.559 6 13.979 6 15.6495C6 17.3201 6.58333 18.7401 7.75 19.9095C8.91667 21.0788 10.3333 21.6635 12 21.6635ZM8.15133 9.4143C8.57867 9.1352 9.03378 8.91035 9.51667 8.73973C9.99956 8.56933 10.4966 8.4447 11.0077 8.36585L7.97433 2.33645H4.641L8.15133 9.4143ZM15.8487 9.4143L19.3923 2.33645H16.0257L13.1153 8.11894L13.2617 8.41196C13.7266 8.50106 14.1761 8.62579 14.6103 8.78617C15.0446 8.94632 15.4573 9.1557 15.8487 9.4143ZM5.636 20.2396C5.65133 20.0905 5.68589 19.9257 5.73967 19.7451C5.79344 19.5642 5.87167 19.3726 5.97433 19.1704C5.56411 18.5057 5.268 17.7874 5.086 17.0154C4.90378 16.2436 4.85633 15.449 4.94367 14.6318C4.94367 13.9636 5.059 13.3297 5.28967 12.73C5.52056 12.1302 5.84111 11.5904 6.25133 11.1106C5.93333 11.1656 5.65378 11.28 5.41267 11.4537C5.17178 11.6277 5 11.8355 4.89733 12.0772C3.906 12.3186 3.13333 12.8776 2.57933 13.7541C2.02556 14.6306 1.85633 15.6016 2.07167 16.6672C2.07167 17.6611 2.41789 18.505 3.11033 19.1988C3.80256 19.8926 4.64444 20.2396 5.636 20.2396ZM18.364 20.2396C19.5709 20.1676 20.5898 19.6935 21.4207 18.8172C22.2513 17.9408 22.6667 16.8848 22.6667 15.6495C22.6667 14.4142 22.2513 13.3583 21.4207 12.4818C20.5898 11.6055 19.5709 11.1314 18.364 11.0595C18.2616 11.0595 18.159 11.0637 18.0563 11.0722C17.9539 11.0806 17.8513 11.0934 17.7487 11.1106C18.2462 11.7394 18.6347 12.4398 18.914 13.2118C19.1936 13.9836 19.3333 14.7962 19.3333 15.6495C19.3333 16.5028 19.1936 17.3154 18.914 18.0872C18.6347 18.8592 18.2462 19.5596 17.7487 20.1884C17.8513 20.2056 17.9539 20.2184 18.0563 20.2269C18.159 20.2353 18.2616 20.2396 18.364 20.2396ZM12 23C11.1453 23 10.3381 22.8677 9.57833 22.6031C8.81833 22.3382 8.12811 21.9573 7.50767 21.4604C7.27345 21.5393 7.02644 21.5928 6.76667 21.6211C6.50689 21.6494 6.24022 21.6635 5.96667 21.6635C4.32044 21.6635 2.91444 21.0793 1.74867 19.9108C0.582889 18.7423 0 17.333 0 15.6829C0 14.0536 0.567556 12.6598 1.70267 11.5015C2.83756 10.3432 4.21278 9.74607 5.82833 9.70999C6.01633 9.70999 6.19578 9.7228 6.36667 9.74841C6.53756 9.77425 6.70845 9.80432 6.87933 9.83862L2.46167 1H8.82067L12 7.37387L15.1793 1H21.5383L17.1793 9.74607C17.3333 9.71177 17.4916 9.68605 17.654 9.66889C17.8162 9.65174 17.9829 9.64317 18.154 9.64317C19.7864 9.68437 21.1689 10.2841 22.3013 11.4424C23.4338 12.6006 24 14.003 24 15.6495C24 17.3219 23.4171 18.7423 22.2513 19.9108C21.0856 21.0793 19.6684 21.6635 18 21.6635C17.7316 21.6635 17.4704 21.6494 17.2167 21.6211C16.9629 21.5928 16.7189 21.5393 16.4847 21.4604C15.8642 21.9402 15.1753 22.3167 14.418 22.59C13.6607 22.8633 12.8547 23 12 23ZM9.918 18.708L10.6973 16.13L8.61533 14.6422H11.1873L12 11.9228L12.8127 14.6422H15.3847L13.3027 16.13L14.082 18.708L12 17.1196L9.918 18.708Z" fill="#23771e"/>
</g>
</svg>
