<svg width="18" height="12" viewBox="0 0 18 12" fill="none" xmlns="http://www.w3.org/2000/svg">
<path d="M4.05 9.62677C4.8357 9.62677 5.5998 9.71396 6.3423 9.88836C7.0848 10.0628 7.8207 10.3466 8.55 10.7398V2.21289C7.90035 1.76488 7.1844 1.42891 6.40215 1.20497C5.61975 0.981042 4.8357 0.869077 4.05 0.869077C3.45225 0.869077 2.88135 0.917021 2.3373 1.01291C1.7934 1.10865 1.3143 1.26907 0.9 1.49416V10.1817C1.3212 10.0079 1.8165 9.87192 2.3859 9.77386C2.9553 9.6758 3.51 9.62677 4.05 9.62677ZM9.45 10.7398C10.1793 10.3466 10.9152 10.0628 11.6577 9.88836C12.4002 9.71396 13.1643 9.62677 13.95 9.62677C14.49 9.62677 15.0447 9.6758 15.6141 9.77386C16.1835 9.87192 16.6788 10.0079 17.1 10.1817V1.49416C16.6857 1.26907 16.2066 1.10865 15.6627 1.01291C15.1187 0.917021 14.5478 0.869077 13.95 0.869077C13.1643 0.869077 12.3803 0.981042 11.5979 1.20497C10.8156 1.42891 10.0997 1.76488 9.45 2.21289V10.7398ZM9 12C8.26845 11.5164 7.48268 11.1448 6.64268 10.8852C5.80268 10.6256 4.93845 10.4958 4.05 10.4958C3.31275 10.4958 2.58698 10.5961 1.87267 10.7965C1.15852 10.9972 0.5343 11.2624 0 11.5922V0.96272C0.51 0.661875 1.12185 0.426209 1.83555 0.255725C2.5491 0.0852411 3.28725 0 4.05 0C4.93155 0 5.79143 0.122539 6.62963 0.367619C7.46798 0.612844 8.2581 0.969455 9 1.43745C9.7419 0.969455 10.532 0.612844 11.3704 0.367619C12.2086 0.122539 13.0685 0 13.95 0C14.7128 0 15.4481 0.0852411 16.1559 0.255725C16.8638 0.426209 17.4785 0.661875 18 0.96272V11.5922C17.4693 11.2624 16.8459 10.9972 16.1298 10.7965C15.4139 10.5961 14.6873 10.4958 13.95 10.4958C13.0616 10.4958 12.1973 10.6256 11.3573 10.8852C10.5173 11.1448 9.73155 11.5164 9 12Z" fill="black"/>
</svg>
