<svg width="76" height="62" viewBox="0 0 76 62" fill="none" xmlns="http://www.w3.org/2000/svg">
<path d="M37.4558 2.58218C25.4558 -2.41782 10.3658 6.28218 3.77579 22.0522C-2.81421 37.8222 1.58579 54.6622 13.6058 59.6722C25.6258 64.6822 40.7158 55.9922 47.2858 40.2222C53.8558 24.4522 49.4658 7.60218 37.4558 2.58218ZM44.7758 37.7122C39.1458 51.2222 26.2158 58.7122 15.9058 54.3922C5.59579 50.0722 1.83579 35.6422 7.47579 22.1222C13.1158 8.60218 26.0558 1.13218 36.3458 5.44218C46.6358 9.75218 50.4258 24.1922 44.7758 37.7122Z" fill="black"/>
<path d="M38.536 2.32218C50.536 -2.67782 65.636 6.02218 72.226 21.7822C78.816 37.5422 74.406 54.4022 62.396 59.4122C50.386 64.4222 35.296 55.7222 28.716 39.9622C22.136 24.2022 26.526 7.34218 38.536 2.32218ZM31.216 37.4422C36.856 50.9622 49.786 58.4422 60.096 54.1222C70.406 49.8022 74.166 35.3722 68.526 21.9022C62.886 8.43218 49.946 0.902181 39.646 5.18218C29.346 9.46218 25.566 23.9022 31.216 37.4422Z" fill="black"/>
</svg>
