<svg width="25" height="25" viewBox="0 0 25 25" fill="none" xmlns="http://www.w3.org/2000/svg">
<path d="M15.0789 9.42124C15.4084 9.75074 15.6825 10.1885 15.9011 10.7345C16.1196 11.2807 16.2084 11.8147 16.1674 12.3365C16.1674 12.4712 16.1206 12.5843 16.0271 12.676C15.9335 12.7677 15.8193 12.8135 15.6846 12.8135C15.5501 12.8135 15.4371 12.7677 15.3454 12.676C15.2537 12.5843 15.2079 12.4712 15.2079 12.3365C15.2527 11.8903 15.2053 11.4737 15.0656 11.0865C14.9258 10.6993 14.7142 10.3641 14.4309 10.0807C14.1476 9.79741 13.8059 9.58399 13.4059 9.44049C13.0059 9.29682 12.5873 9.25382 12.1501 9.31149C12.0155 9.32432 11.8959 9.28716 11.7914 9.19999C11.6869 9.11282 11.6283 9.00191 11.6156 8.86724C11.6028 8.73274 11.639 8.61324 11.7241 8.50874C11.8095 8.40424 11.9194 8.34557 12.0539 8.33274C12.5847 8.26607 13.1296 8.33882 13.6886 8.55099C14.2476 8.76316 14.7111 9.05324 15.0789 9.42124ZM12.5001 6.49999C12.1065 6.49999 11.718 6.52207 11.3346 6.56624C10.9513 6.61057 10.5712 6.67891 10.1944 6.77124C10.0521 6.80841 9.9229 6.78916 9.8069 6.71349C9.6909 6.63782 9.61048 6.53716 9.56565 6.41149C9.52065 6.27299 9.53373 6.14607 9.6049 6.03074C9.67606 5.91541 9.7809 5.83916 9.9194 5.80199C10.3412 5.69299 10.7671 5.61541 11.1971 5.56924C11.6273 5.52307 12.0616 5.49999 12.5001 5.49999C14.5143 5.49999 16.3742 6.01666 18.0799 7.04999C19.7857 8.08332 21.1066 9.48849 22.0424 11.2655C22.1091 11.386 22.1559 11.5042 22.1829 11.6202C22.2097 11.7362 22.2231 11.8628 22.2231 12C22.2231 12.1372 22.2106 12.2637 22.1856 12.3797C22.1606 12.4957 22.1148 12.614 22.0481 12.7345C21.7353 13.35 21.3613 13.9206 20.9261 14.4462C20.4908 14.9717 20.0129 15.457 19.4924 15.902C19.3822 15.9955 19.2611 16.0352 19.1289 16.0212C18.9969 16.0071 18.8861 15.941 18.7964 15.823C18.7066 15.7052 18.671 15.5824 18.6896 15.4547C18.7081 15.3272 18.7726 15.2167 18.8829 15.123C19.3854 14.6885 19.8418 14.211 20.2521 13.6905C20.6623 13.1698 21.0116 12.6063 21.3001 12C20.4668 10.3167 19.2626 8.97916 17.6876 7.98749C16.1126 6.99582 14.3835 6.49999 12.5001 6.49999ZM12.5001 18.5C10.5231 18.5 8.70582 17.9792 7.04815 16.9375C5.39048 15.8958 4.0604 14.5198 3.0579 12.8095C2.97457 12.689 2.91523 12.5592 2.8799 12.4202C2.84473 12.2811 2.82715 12.141 2.82715 12C2.82715 11.859 2.84382 11.7199 2.87715 11.5827C2.91048 11.4456 2.96882 11.3148 3.05215 11.1905C3.46232 10.4982 3.91706 9.84141 4.4164 9.22024C4.9159 8.59907 5.49382 8.05132 6.15015 7.57699L3.70965 5.13074C3.61615 5.03324 3.56715 4.91757 3.56265 4.78374C3.55815 4.64974 3.60915 4.52949 3.71565 4.42299C3.82198 4.31666 3.9399 4.26349 4.0694 4.26349C4.1989 4.26349 4.31682 4.31666 4.42315 4.42299L20.5771 20.577C20.6706 20.6705 20.7216 20.7842 20.7299 20.9182C20.7382 21.0522 20.6873 21.1743 20.5771 21.2845C20.4706 21.391 20.3526 21.4442 20.2231 21.4442C20.0936 21.4442 19.9757 21.391 19.8694 21.2845L16.3309 17.7577C15.7347 18.0307 15.1142 18.2227 14.4694 18.3337C13.8246 18.4446 13.1681 18.5 12.5001 18.5ZM6.8579 8.28449C6.1694 8.75632 5.55782 9.30507 5.02315 9.93074C4.48865 10.5564 4.04765 11.2462 3.70015 12C4.53348 13.6833 5.73765 15.0208 7.31265 16.0125C8.88765 17.0042 10.6168 17.5 12.5001 17.5C13.0258 17.5 13.5463 17.4632 14.0616 17.3895C14.577 17.3157 15.0783 17.1832 15.5656 16.9922L13.9346 15.35C13.713 15.477 13.4836 15.5593 13.2464 15.597C13.0092 15.6348 12.7605 15.6537 12.5001 15.6537C11.481 15.6537 10.6172 15.2996 9.9089 14.5912C9.20057 13.8829 8.8464 13.0192 8.8464 12C8.8464 11.7397 8.86848 11.4909 8.91265 11.2537C8.95682 11.0166 9.03598 10.7872 9.15015 10.5655L6.8579 8.28449Z" fill="#999999"/>
</svg>
